<svg width="108" height="72" viewBox="0 0 108 72" fill="none" xmlns="http://www.w3.org/2000/svg">
<path d="M26.9892 1.5108H106.409L81.0109 24.8068H1.59082L26.9892 1.5108Z" stroke="white" stroke-width="3" stroke-linejoin="round"/>
<path d="M26.9892 1.5108H106.409L81.0109 24.8068H1.59082L26.9892 1.5108Z" stroke="url(#paint0_linear_454:4641)" stroke-width="3" stroke-linejoin="round"/>
<path d="M106.409 12.2025L81.0109 35.4984H1.59082L13.1231 24.9207" stroke="white" stroke-width="3" stroke-linecap="round" stroke-linejoin="round"/>
<path d="M106.409 12.2025L81.0109 35.4984H1.59082L13.1231 24.9207" stroke="url(#paint1_linear_454:4641)" stroke-width="3" stroke-linecap="round" stroke-linejoin="round"/>
<path d="M56.1377 70.1616V24.5614L79.9012 2.76495" stroke="white" stroke-width="3" stroke-linecap="round" stroke-linejoin="round"/>
<path d="M56.1377 70.1616V24.5614L79.9012 2.76495" stroke="url(#paint2_linear_454:4641)" stroke-width="3" stroke-linecap="round" stroke-linejoin="round"/>
<path d="M27.5325 70.3003V24.5614L51.296 2.76495" stroke="white" stroke-width="3" stroke-linecap="round" stroke-linejoin="round"/>
<path d="M27.5325 70.3003V24.5614L51.296 2.76495" stroke="url(#paint3_linear_454:4641)" stroke-width="3" stroke-linecap="round" stroke-linejoin="round"/>
<path d="M106.409 23.8504L81.0109 47.1464H1.59082L13.1231 36.5687" stroke="white" stroke-width="3" stroke-linecap="round" stroke-linejoin="round"/>
<path d="M106.409 23.8504L81.0109 47.1464H1.59082L13.1231 36.5687" stroke="url(#paint4_linear_454:4641)" stroke-width="3" stroke-linecap="round" stroke-linejoin="round"/>
<path d="M106.409 23.8504L81.0109 47.1464H1.59082L13.1231 36.5687" stroke="white" stroke-width="3" stroke-linecap="round" stroke-linejoin="round"/>
<path d="M106.409 23.8504L81.0109 47.1464H1.59082L13.1231 36.5687" stroke="url(#paint5_linear_454:4641)" stroke-width="3" stroke-linecap="round" stroke-linejoin="round"/>
<path d="M106.409 35.4984L81.0109 58.7943H1.59082L13.1231 48.2166" stroke="white" stroke-width="3" stroke-linecap="round" stroke-linejoin="round"/>
<path d="M106.409 35.4984L81.0109 58.7943H1.59082L13.1231 48.2166" stroke="url(#paint6_linear_454:4641)" stroke-width="3" stroke-linecap="round" stroke-linejoin="round"/>
<path d="M106.409 47.1463L81.0109 70.4423H1.59082L13.1231 59.8646" stroke="white" stroke-width="3" stroke-linecap="round" stroke-linejoin="round"/>
<path d="M106.409 47.1463L81.0109 70.4423H1.59082L13.1231 59.8646" stroke="url(#paint7_linear_454:4641)" stroke-width="3" stroke-linecap="round" stroke-linejoin="round"/>
<defs>
<linearGradient id="paint0_linear_454:4641" x1="54.0001" y1="1.5108" x2="54.0001" y2="24.8068" gradientUnits="userSpaceOnUse">
<stop stop-color="white"/>
<stop offset="1" stop-color="white" stop-opacity="0"/>
</linearGradient>
<linearGradient id="paint1_linear_454:4641" x1="54.0001" y1="12.2025" x2="54.0001" y2="35.4984" gradientUnits="userSpaceOnUse">
<stop stop-color="white"/>
<stop offset="1" stop-color="white" stop-opacity="0"/>
</linearGradient>
<linearGradient id="paint2_linear_454:4641" x1="68.0194" y1="2.76495" x2="68.0194" y2="70.1616" gradientUnits="userSpaceOnUse">
<stop stop-color="white"/>
<stop offset="1" stop-color="white" stop-opacity="0"/>
</linearGradient>
<linearGradient id="paint3_linear_454:4641" x1="39.4142" y1="2.76495" x2="39.4142" y2="70.3003" gradientUnits="userSpaceOnUse">
<stop stop-color="white"/>
<stop offset="1" stop-color="white" stop-opacity="0"/>
</linearGradient>
<linearGradient id="paint4_linear_454:4641" x1="54.0001" y1="23.8504" x2="54.0001" y2="47.1464" gradientUnits="userSpaceOnUse">
<stop stop-color="white"/>
<stop offset="1" stop-color="white" stop-opacity="0"/>
</linearGradient>
<linearGradient id="paint5_linear_454:4641" x1="54.0001" y1="23.8504" x2="54.0001" y2="47.1464" gradientUnits="userSpaceOnUse">
<stop stop-color="white"/>
<stop offset="1" stop-color="white" stop-opacity="0"/>
</linearGradient>
<linearGradient id="paint6_linear_454:4641" x1="54.0001" y1="35.4984" x2="54.0001" y2="58.7943" gradientUnits="userSpaceOnUse">
<stop stop-color="white"/>
<stop offset="1" stop-color="white" stop-opacity="0"/>
</linearGradient>
<linearGradient id="paint7_linear_454:4641" x1="54.0001" y1="47.1463" x2="54.0001" y2="70.4423" gradientUnits="userSpaceOnUse">
<stop stop-color="white"/>
<stop offset="1" stop-color="white" stop-opacity="0"/>
</linearGradient>
</defs>
</svg>
