<svg width="88" height="84" viewBox="0 0 88 84" fill="none" xmlns="http://www.w3.org/2000/svg">
<path d="M71.0224 42.8936V7.02612C71.0224 4.2647 68.7838 2.02612 66.0224 2.02612H21.4001C18.6387 2.02612 16.4001 4.2647 16.4001 7.02612V17.8235" stroke="white" stroke-width="3" stroke-linecap="round"/>
<path d="M71.0224 42.8936V7.02612C71.0224 4.2647 68.7838 2.02612 66.0224 2.02612H21.4001C18.6387 2.02612 16.4001 4.2647 16.4001 7.02612V17.8235" stroke="url(#paint0_linear_454:4630)" stroke-width="3" stroke-linecap="round"/>
<path d="M71.729 26.8755L86.1799 33.4235V69.8907C86.1799 72.6521 83.9414 74.8907 81.1799 74.8907H45.0017" stroke="white" stroke-width="3" stroke-linecap="round" stroke-linejoin="round"/>
<path d="M71.729 26.8755L86.1799 33.4235V69.8907C86.1799 72.6521 83.9414 74.8907 81.1799 74.8907H45.0017" stroke="url(#paint1_linear_454:4630)" stroke-width="3" stroke-linecap="round" stroke-linejoin="round"/>
<path d="M23.353 27.5858C23.353 35.0717 23.353 49.8082 23.353 49.8082" stroke="white" stroke-width="3" stroke-linecap="round"/>
<path d="M23.353 27.5858C23.353 35.0717 23.353 49.8082 23.353 49.8082" stroke="url(#paint2_linear_454:4630)" stroke-width="3" stroke-linecap="round"/>
<path d="M38.0042 56.5571C38.0042 62.733 38.0042 74.8907 38.0042 74.8907" stroke="white" stroke-width="3" stroke-linecap="round"/>
<path d="M38.0042 56.5571C38.0042 62.733 38.0042 74.8907 38.0042 74.8907" stroke="url(#paint3_linear_454:4630)" stroke-width="3" stroke-linecap="round"/>
<path d="M1.74927 27.5858C1.74927 39.9873 1.74927 64.4007 1.74927 64.4007" stroke="white" stroke-width="3" stroke-linecap="round"/>
<path d="M1.74927 27.5858C1.74927 39.9873 1.74927 64.4007 1.74927 64.4007" stroke="url(#paint4_linear_454:4630)" stroke-width="3" stroke-linecap="round"/>
<path d="M16.4004 56.5571C16.4004 62.733 16.4004 74.8907 16.4004 74.8907" stroke="white" stroke-width="3" stroke-linecap="round"/>
<path d="M16.4004 56.5571C16.4004 62.733 16.4004 74.8907 16.4004 74.8907" stroke="url(#paint5_linear_454:4630)" stroke-width="3" stroke-linecap="round"/>
<ellipse cx="34.1777" cy="18.0197" rx="4.92889" ry="6.44789" stroke="white" stroke-width="3"/>
<ellipse cx="34.1777" cy="18.0197" rx="4.92889" ry="6.44789" stroke="url(#paint6_linear_454:4630)" stroke-width="3"/>
<ellipse cx="53.1413" cy="37.1902" rx="4.92889" ry="6.44789" stroke="white" stroke-width="3"/>
<ellipse cx="53.1413" cy="37.1902" rx="4.92889" ry="6.44789" stroke="url(#paint7_linear_454:4630)" stroke-width="3"/>
<path d="M53.4774 11.0789L33.7395 43.9753" stroke="white" stroke-width="3" stroke-linecap="round"/>
<path d="M53.4774 11.0789L33.7395 43.9753" stroke="url(#paint8_linear_454:4630)" stroke-width="3" stroke-linecap="round"/>
<ellipse cx="12.5512" cy="27.4902" rx="10.802" ry="6.6534" stroke="white" stroke-width="3"/>
<ellipse cx="12.5512" cy="27.4902" rx="10.802" ry="6.6534" stroke="url(#paint9_linear_454:4630)" stroke-width="3"/>
<ellipse cx="27.2024" cy="56.4616" rx="10.802" ry="6.6534" stroke="white" stroke-width="3"/>
<ellipse cx="27.2024" cy="56.4616" rx="10.802" ry="6.6534" stroke="url(#paint10_linear_454:4630)" stroke-width="3"/>
<path d="M20.08 32.2136C22.0989 33.4225 23.3532 35.1134 23.3532 36.9847C23.3532 40.6593 18.517 43.6381 12.5512 43.6381C6.58547 43.6381 1.74927 40.6593 1.74927 36.9847C1.74927 35.1134 3.00351 33.4225 5.02245 32.2136" stroke="white" stroke-width="3"/>
<path d="M20.08 32.2136C22.0989 33.4225 23.3532 35.1134 23.3532 36.9847C23.3532 40.6593 18.517 43.6381 12.5512 43.6381C6.58547 43.6381 1.74927 40.6593 1.74927 36.9847C1.74927 35.1134 3.00351 33.4225 5.02245 32.2136" stroke="url(#paint11_linear_454:4630)" stroke-width="3"/>
<path d="M20.08 32.2136C22.0989 33.4225 23.3532 35.1134 23.3532 36.9847C23.3532 40.6593 18.517 43.6381 12.5512 43.6381C6.58547 43.6381 1.74927 40.6593 1.74927 36.9847C1.74927 35.1134 3.00351 33.4225 5.02245 32.2136" stroke="white" stroke-width="3"/>
<path d="M20.08 32.2136C22.0989 33.4225 23.3532 35.1134 23.3532 36.9847C23.3532 40.6593 18.517 43.6381 12.5512 43.6381C6.58547 43.6381 1.74927 40.6593 1.74927 36.9847C1.74927 35.1134 3.00351 33.4225 5.02245 32.2136" stroke="url(#paint12_linear_454:4630)" stroke-width="3"/>
<path d="M34.7311 61.1851C36.7501 62.394 38.0043 64.0848 38.0043 65.9561C38.0043 69.6307 33.1681 72.6095 27.2024 72.6095C21.2366 72.6095 16.4004 69.6307 16.4004 65.9561C16.4004 64.0848 17.6546 62.394 19.6736 61.1851" stroke="white" stroke-width="3"/>
<path d="M34.7311 61.1851C36.7501 62.394 38.0043 64.0848 38.0043 65.9561C38.0043 69.6307 33.1681 72.6095 27.2024 72.6095C21.2366 72.6095 16.4004 69.6307 16.4004 65.9561C16.4004 64.0848 17.6546 62.394 19.6736 61.1851" stroke="url(#paint13_linear_454:4630)" stroke-width="3"/>
<path d="M20.08 41.531C22.0989 42.7399 23.3532 44.4308 23.3532 46.3021C23.3532 49.9767 18.517 52.9555 12.5512 52.9555C6.58547 52.9555 1.74927 49.9767 1.74927 46.3021C1.74927 44.4308 3.00351 42.7399 5.02245 41.531" stroke="white" stroke-width="3"/>
<path d="M20.08 41.531C22.0989 42.7399 23.3532 44.4308 23.3532 46.3021C23.3532 49.9767 18.517 52.9555 12.5512 52.9555C6.58547 52.9555 1.74927 49.9767 1.74927 46.3021C1.74927 44.4308 3.00351 42.7399 5.02245 41.531" stroke="url(#paint14_linear_454:4630)" stroke-width="3"/>
<path d="M34.7311 70.5024C36.7501 71.7113 38.0043 73.4022 38.0043 75.2735C38.0043 78.9481 33.1681 81.9269 27.2024 81.9269C21.2366 81.9269 16.4004 78.9481 16.4004 75.2735C16.4004 73.4022 17.6546 71.7113 19.6736 70.5024" stroke="white" stroke-width="3"/>
<path d="M34.7311 70.5024C36.7501 71.7113 38.0043 73.4022 38.0043 75.2735C38.0043 78.9481 33.1681 81.9269 27.2024 81.9269C21.2366 81.9269 16.4004 78.9481 16.4004 75.2735C16.4004 73.4022 17.6546 71.7113 19.6736 70.5024" stroke="url(#paint15_linear_454:4630)" stroke-width="3"/>
<path d="M5.02245 50.8483C3.00351 52.0572 1.74927 53.7481 1.74927 55.6194C1.74927 59.294 6.58547 62.2728 12.5512 62.2728C15.2096 62.2728 17.6437 61.6813 19.5255 60.7003" stroke="white" stroke-width="3"/>
<path d="M5.02245 50.8483C3.00351 52.0572 1.74927 53.7481 1.74927 55.6194C1.74927 59.294 6.58547 62.2728 12.5512 62.2728C15.2096 62.2728 17.6437 61.6813 19.5255 60.7003" stroke="url(#paint16_linear_454:4630)" stroke-width="3"/>
<path d="M5.02245 60.1656C3.00351 61.3745 1.74927 63.0654 1.74927 64.9367C1.74927 68.6113 6.58547 71.5901 12.5512 71.5901C14.8383 71.5901 16.9594 71.1523 18.7056 70.4054" stroke="white" stroke-width="3"/>
<path d="M5.02245 60.1656C3.00351 61.3745 1.74927 63.0654 1.74927 64.9367C1.74927 68.6113 6.58547 71.5901 12.5512 71.5901C14.8383 71.5901 16.9594 71.1523 18.7056 70.4054" stroke="url(#paint17_linear_454:4630)" stroke-width="3"/>
<path d="M44.2166 59.3828L86.2506 35.1036" stroke="white" stroke-width="3" stroke-linecap="round"/>
<path d="M44.2166 59.3828L86.2506 35.1036" stroke="url(#paint18_linear_454:4630)" stroke-width="3" stroke-linecap="round"/>
<defs>
<linearGradient id="paint0_linear_454:4630" x1="43.7113" y1="2.02612" x2="43.7113" y2="42.8936" gradientUnits="userSpaceOnUse">
<stop stop-color="white"/>
<stop offset="1" stop-color="white" stop-opacity="0"/>
</linearGradient>
<linearGradient id="paint1_linear_454:4630" x1="65.5908" y1="26.8755" x2="65.5908" y2="74.8907" gradientUnits="userSpaceOnUse">
<stop stop-color="white"/>
<stop offset="1" stop-color="white" stop-opacity="0"/>
</linearGradient>
<linearGradient id="paint2_linear_454:4630" x1="23.853" y1="27.5858" x2="23.853" y2="49.8082" gradientUnits="userSpaceOnUse">
<stop stop-color="white"/>
<stop offset="1" stop-color="white" stop-opacity="0"/>
</linearGradient>
<linearGradient id="paint3_linear_454:4630" x1="38.5042" y1="56.5571" x2="38.5042" y2="74.8907" gradientUnits="userSpaceOnUse">
<stop stop-color="white"/>
<stop offset="1" stop-color="white" stop-opacity="0"/>
</linearGradient>
<linearGradient id="paint4_linear_454:4630" x1="2.24927" y1="27.5858" x2="2.24927" y2="64.4007" gradientUnits="userSpaceOnUse">
<stop stop-color="white"/>
<stop offset="1" stop-color="white" stop-opacity="0"/>
</linearGradient>
<linearGradient id="paint5_linear_454:4630" x1="16.9004" y1="56.5571" x2="16.9004" y2="74.8907" gradientUnits="userSpaceOnUse">
<stop stop-color="white"/>
<stop offset="1" stop-color="white" stop-opacity="0"/>
</linearGradient>
<linearGradient id="paint6_linear_454:4630" x1="34.1777" y1="11.5718" x2="34.1777" y2="24.4676" gradientUnits="userSpaceOnUse">
<stop stop-color="white"/>
<stop offset="1" stop-color="white" stop-opacity="0"/>
</linearGradient>
<linearGradient id="paint7_linear_454:4630" x1="53.1413" y1="30.7423" x2="53.1413" y2="43.6381" gradientUnits="userSpaceOnUse">
<stop stop-color="white"/>
<stop offset="1" stop-color="white" stop-opacity="0"/>
</linearGradient>
<linearGradient id="paint8_linear_454:4630" x1="43.6084" y1="11.0789" x2="43.6084" y2="43.9753" gradientUnits="userSpaceOnUse">
<stop stop-color="white"/>
<stop offset="1" stop-color="white" stop-opacity="0"/>
</linearGradient>
<linearGradient id="paint9_linear_454:4630" x1="12.5512" y1="20.8368" x2="12.5512" y2="34.1436" gradientUnits="userSpaceOnUse">
<stop stop-color="white"/>
<stop offset="1" stop-color="white" stop-opacity="0"/>
</linearGradient>
<linearGradient id="paint10_linear_454:4630" x1="27.2024" y1="49.8082" x2="27.2024" y2="63.115" gradientUnits="userSpaceOnUse">
<stop stop-color="white"/>
<stop offset="1" stop-color="white" stop-opacity="0"/>
</linearGradient>
<linearGradient id="paint11_linear_454:4630" x1="12.5512" y1="32.2136" x2="12.5512" y2="43.6381" gradientUnits="userSpaceOnUse">
<stop stop-color="white"/>
<stop offset="1" stop-color="white" stop-opacity="0"/>
</linearGradient>
<linearGradient id="paint12_linear_454:4630" x1="12.5512" y1="32.2136" x2="12.5512" y2="43.6381" gradientUnits="userSpaceOnUse">
<stop stop-color="white"/>
<stop offset="1" stop-color="white" stop-opacity="0"/>
</linearGradient>
<linearGradient id="paint13_linear_454:4630" x1="27.2024" y1="61.1851" x2="27.2024" y2="72.6095" gradientUnits="userSpaceOnUse">
<stop stop-color="white"/>
<stop offset="1" stop-color="white" stop-opacity="0"/>
</linearGradient>
<linearGradient id="paint14_linear_454:4630" x1="12.5512" y1="41.531" x2="12.5512" y2="52.9555" gradientUnits="userSpaceOnUse">
<stop stop-color="white"/>
<stop offset="1" stop-color="white" stop-opacity="0"/>
</linearGradient>
<linearGradient id="paint15_linear_454:4630" x1="27.2024" y1="70.5024" x2="27.2024" y2="81.9269" gradientUnits="userSpaceOnUse">
<stop stop-color="white"/>
<stop offset="1" stop-color="white" stop-opacity="0"/>
</linearGradient>
<linearGradient id="paint16_linear_454:4630" x1="10.6374" y1="50.8483" x2="10.6374" y2="62.2728" gradientUnits="userSpaceOnUse">
<stop stop-color="white"/>
<stop offset="1" stop-color="white" stop-opacity="0"/>
</linearGradient>
<linearGradient id="paint17_linear_454:4630" x1="10.2274" y1="60.1656" x2="10.2274" y2="71.5901" gradientUnits="userSpaceOnUse">
<stop stop-color="white"/>
<stop offset="1" stop-color="white" stop-opacity="0"/>
</linearGradient>
<linearGradient id="paint18_linear_454:4630" x1="65.2336" y1="35.1036" x2="65.2336" y2="59.3828" gradientUnits="userSpaceOnUse">
<stop stop-color="white"/>
<stop offset="1" stop-color="white" stop-opacity="0"/>
</linearGradient>
</defs>
</svg>
