<svg width="28" height="36" viewBox="0 0 28 36" fill="none" xmlns="http://www.w3.org/2000/svg">
<path d="M14 0C6.27116 0 0 6.18731 0 13.8128C0 20.3209 10.1828 32.085 13.182 35.4167C13.6225 35.903 14.388 35.903 14.8285 35.4167C17.8277 32.085 28 20.3209 28 13.8128C28 6.18731 21.7288 0 14 0ZM14 19.9794C10.1828 19.9794 7.07865 16.9168 7.07865 13.1506C7.07865 9.38443 10.1828 6.32182 14 6.32182C17.8172 6.32182 20.9213 9.38443 20.9213 13.1506C20.9213 16.9168 17.8172 19.9794 14 19.9794Z" fill="#FF0000"/>
</svg>
