<svg width="260" height="32" viewBox="0 0 260 32" fill="none" xmlns="http://www.w3.org/2000/svg">
<path d="M32.6818 5.07785C34.8153 7.47306 35.5911 11.018 35.1062 16.2874C34.7183 21.8443 33.3606 25.2934 30.9361 27.497C28.4147 29.7964 24.2446 30.9461 18.038 30.9461C11.8313 30.9461 7.66124 29.8922 5.13979 27.497C2.8123 25.2934 1.55158 21.8443 1.06668 16.2874C0.58179 11.018 1.35762 7.47306 3.49115 5.07785C6.0126 2.2994 10.6676 0.958087 18.1349 0.958087C25.5053 0.958087 30.1603 2.2994 32.6818 5.07785ZM18.1349 0.19162C3.20022 0.19162 -0.678934 5.6527 0.193875 16.3832C1.16366 27.2096 5.04281 31.8084 18.038 31.8084C31.0331 31.8084 34.9123 27.2096 35.882 16.3832C36.8518 5.6527 32.9727 0.19162 18.1349 0.19162Z" fill="#0B457F"/>
<path d="M18.135 1.72455C4.75191 1.72455 1.06672 6.61078 1.93953 16.3832C2.81234 26.0599 6.30357 30.1796 18.038 30.1796C29.7724 30.1796 33.2637 26.0599 34.1365 16.3832C35.0093 6.61078 31.518 1.72455 18.135 1.72455ZM24.8265 4.02395C22.2081 10.5389 19.2987 16.7665 18.4259 18.6826C18.3915 18.7264 18.3473 18.7618 18.2969 18.7862C18.2465 18.8106 18.1911 18.8232 18.135 18.8232C18.0788 18.8232 18.0235 18.8106 17.973 18.7862C17.9226 18.7618 17.8785 18.7264 17.844 18.6826C16.8743 16.6707 13.9649 10.5389 11.4434 4.02395C11.3465 3.92814 11.4434 3.83233 11.5404 3.83233C13.383 3.4491 15.6135 3.25748 18.232 3.25748C20.8504 3.25748 22.9839 3.4491 24.9235 3.83233C24.8265 3.83233 24.9235 3.92814 24.8265 4.02395ZM3.39421 16.1916C3.10327 11.6886 3.68515 8.71856 5.43076 6.70658C6.40055 5.65269 7.75825 4.88622 9.60085 4.31137C9.69783 4.31137 9.69783 4.31137 9.69783 4.50299V13.3174C9.69783 14.7545 10.0857 16.1916 10.7646 17.5329L16.6803 28.4551C16.7773 28.5509 16.6803 28.6467 16.5833 28.6467C11.9283 28.4551 8.922 27.5928 6.98242 25.7725C4.94587 23.9521 3.8791 20.982 3.39421 16.1916ZM32.7788 16.1916C32.3909 20.982 31.2271 23.9521 29.1906 25.7725C27.251 27.5928 24.1477 28.5509 19.5897 28.6467C19.3957 28.6467 19.3957 28.4551 19.3957 28.4551L25.3114 17.5329C25.9903 16.1916 26.2812 14.7545 26.2812 13.3174V4.40718C26.2812 4.21557 26.3782 4.21557 26.4752 4.21557C28.3177 4.79042 29.6755 5.55688 30.6452 6.61078C32.4878 8.71856 33.1667 11.6886 32.7788 16.1916Z" fill="#0B457F"/>
<path d="M53.4354 23.1856C48.4894 23.1856 45.5801 21.4611 45.5801 16.2874C45.5801 11.5928 48.5864 9.67664 53.6293 9.67664H60.0299V13.2215H53.9202C51.4958 13.2215 50.8169 13.8922 50.8169 16.3832C50.8169 19.0659 51.4958 19.7365 54.1142 19.7365H60.0299V23.2814H53.4354V23.1856Z" fill="#0B457F"/>
<path d="M80.0074 9.58084V23.1856H74.9645V18.012H69.3398V23.1856H64.2969V9.58084H69.3398V14.3713H74.9645V9.58084H80.0074Z" fill="#0B457F"/>
<path d="M82.8198 23.1856L88.3476 9.58084H93.0026C94.1663 9.58084 94.6512 9.96407 94.9422 10.7305L100.276 23.1856H94.8452L91.354 14.7545C91.16 14.1796 90.7721 14.1796 90.5781 14.7545L87.1839 23.1856H82.8198Z" fill="#0B457F"/>
<path d="M113.95 22.4192L107.549 16.479C107.355 16.1916 107.162 16.2874 107.162 16.6707V23.1856H102.991V9.58084H105.707C106.677 9.58084 107.259 9.77246 107.743 10.1557L114.435 16.2874C114.629 16.5749 114.823 16.3832 114.823 16.0958V9.58084H118.993V22.515C118.993 22.8982 118.799 23.1856 118.314 23.1856H116.084C115.211 23.1856 114.532 22.8982 113.95 22.4192Z" fill="#0B457F"/>
<path d="M138.583 23.1856H130.921C125.684 23.1856 122.872 21.4611 122.872 16.2874C122.872 11.6886 125.587 9.67664 131.018 9.67664H139.164V13.2215H131.212C128.691 13.2215 127.915 13.7964 127.915 16.3832C127.915 19.1617 128.594 19.9281 131.212 19.9281H134.219C134.413 19.9281 134.51 19.7365 134.51 19.5449V18.2036C134.51 18.012 134.413 17.8203 134.219 17.8203H131.794V14.9461H138.389C138.777 14.9461 139.068 15.1377 139.068 15.6168V22.515C139.261 22.8982 138.971 23.1856 138.583 23.1856Z" fill="#0B457F"/>
<path d="M142.171 23.1856L147.699 9.58084H152.257C153.517 9.58084 153.905 9.96407 154.293 10.7305L159.53 23.1856H154.196L150.705 14.7545C150.511 14.1796 150.123 14.1796 149.929 14.7545L146.535 23.1856H142.171Z" fill="#0B457F"/>
<path d="M173.301 22.4192L166.9 16.479C166.609 16.1916 166.512 16.2874 166.512 16.6707V23.1856H162.342V9.58084H164.961C165.931 9.58084 166.609 9.77246 167.094 10.1557L173.786 16.2874C173.98 16.5749 174.174 16.3832 174.174 16.0958V9.58084H178.344V22.515C178.344 22.8982 178.15 23.1856 177.665 23.1856H175.434C174.562 23.1856 173.883 22.8982 173.301 22.4192Z" fill="#0B457F"/>
<path d="M186.393 23.1856L191.921 9.58084H196.576C197.74 9.58084 198.224 9.96407 198.515 10.7305L203.849 23.1856H198.418L194.927 14.7545C194.733 14.1796 194.345 14.1796 194.151 14.7545L190.757 23.1856H186.393Z" fill="#0B457F"/>
<path d="M221.306 9.58084V17.4371C221.306 22.2275 218.202 23.6647 213.45 23.6647C208.698 23.6647 205.595 22.3234 205.595 17.4371V9.58084H210.541V16.6707C210.541 19.4491 211.996 20.1198 213.741 20.1198C215.584 20.1198 217.038 19.4491 217.038 16.6707V9.58084H221.306Z" fill="#0B457F"/>
<path d="M224.506 9.58084H239.635V13.2216H234.592V23.1856H229.549V13.2216H224.506V9.58084Z" fill="#0B457F"/>
<path d="M259.709 16.2874C259.709 21.3653 256.703 23.5689 250.69 23.5689C244.774 23.5689 241.671 21.3653 241.671 16.2874C241.671 11.2096 244.774 9.10181 250.69 9.10181C256.606 9.10181 259.709 11.2096 259.709 16.2874ZM246.811 16.2874C246.811 18.9701 247.781 20.1198 250.69 20.1198C253.6 20.1198 254.472 19.0659 254.472 16.2874C254.472 13.7006 253.503 12.6467 250.69 12.6467C247.781 12.6467 246.811 13.6048 246.811 16.2874Z" fill="#0B457F"/>
</svg>
