<svg width="260" height="32" viewBox="0 0 260 32" fill="none" xmlns="http://www.w3.org/2000/svg">
<path d="M32.6818 5.07763C34.8153 7.47284 35.5911 11.0178 35.1062 16.2872C34.7183 21.8441 33.3606 25.2932 30.9361 27.4968C28.4147 29.7962 24.2446 30.9459 18.038 30.9459C11.8313 30.9459 7.66124 29.892 5.13979 27.4968C2.8123 25.2932 1.55158 21.8441 1.06668 16.2872C0.58179 11.0178 1.35762 7.47284 3.49115 5.07763C6.0126 2.29919 10.6676 0.957873 18.1349 0.957873C25.5053 0.957873 30.1603 2.29919 32.6818 5.07763ZM18.1349 0.191406C3.20022 0.191406 -0.678934 5.65248 0.193875 16.383C1.16366 27.2094 5.04281 31.8082 18.038 31.8082C31.0331 31.8082 34.9123 27.2094 35.882 16.383C36.8518 5.65248 32.9727 0.191406 18.1349 0.191406Z" fill="white"/>
<path d="M18.135 1.72461C4.75191 1.72461 1.06672 6.61084 1.93953 16.3833C2.81234 26.0599 6.30357 30.1797 18.038 30.1797C29.7724 30.1797 33.2637 26.0599 34.1365 16.3833C35.0093 6.61084 31.518 1.72461 18.135 1.72461ZM24.8265 4.02401C22.2081 10.539 19.2987 16.7665 18.4259 18.6827C18.3915 18.7265 18.3473 18.7619 18.2969 18.7863C18.2465 18.8106 18.1911 18.8233 18.135 18.8233C18.0788 18.8233 18.0235 18.8106 17.973 18.7863C17.9226 18.7619 17.8785 18.7265 17.844 18.6827C16.8743 16.6707 13.9649 10.539 11.4434 4.02401C11.3465 3.9282 11.4434 3.83239 11.5404 3.83239C13.383 3.44916 15.6135 3.25754 18.232 3.25754C20.8504 3.25754 22.9839 3.44916 24.9235 3.83239C24.8265 3.83239 24.9235 3.9282 24.8265 4.02401ZM3.39421 16.1917C3.10327 11.6887 3.68515 8.71862 5.43076 6.70665C6.40055 5.65275 7.75825 4.88629 9.60085 4.31144C9.69783 4.31144 9.69783 4.31144 9.69783 4.50305V13.3174C9.69783 14.7545 10.0857 16.1917 10.7646 17.533L16.6803 28.4551C16.7773 28.551 16.6803 28.6468 16.5833 28.6468C11.9283 28.4551 8.922 27.5929 6.98242 25.7725C4.94587 23.9522 3.8791 20.9821 3.39421 16.1917ZM32.7788 16.1917C32.3909 20.9821 31.2271 23.9522 29.1906 25.7725C27.251 27.5929 24.1477 28.551 19.5897 28.6468C19.3957 28.6468 19.3957 28.4551 19.3957 28.4551L25.3114 17.533C25.9903 16.1917 26.2812 14.7545 26.2812 13.3174V4.40724C26.2812 4.21563 26.3782 4.21563 26.4752 4.21563C28.3177 4.79048 29.6755 5.55694 30.6452 6.61084C32.4878 8.71862 33.1667 11.6887 32.7788 16.1917Z" fill="white"/>
<path d="M53.4354 23.1857C48.4894 23.1857 45.5801 21.4612 45.5801 16.2875C45.5801 11.5929 48.5864 9.67676 53.6293 9.67676H60.0299V13.2217H53.9202C51.4958 13.2217 50.8169 13.8923 50.8169 16.3833C50.8169 19.066 51.4958 19.7366 54.1142 19.7366H60.0299V23.2815H53.4354V23.1857Z" fill="white"/>
<path d="M80.0074 9.58105V23.1858H74.9645V18.0122H69.3398V23.1858H64.2969V9.58105H69.3398V14.3715H74.9645V9.58105H80.0074Z" fill="white"/>
<path d="M82.8198 23.1858L88.3476 9.58105H93.0026C94.1663 9.58105 94.6512 9.96429 94.9422 10.7308L100.276 23.1858H94.8452L91.354 14.7547C91.16 14.1799 90.7721 14.1799 90.5781 14.7547L87.1839 23.1858H82.8198Z" fill="white"/>
<path d="M113.95 22.4194L107.549 16.4793C107.355 16.1918 107.162 16.2876 107.162 16.6709V23.1858H102.991V9.58105H105.707C106.677 9.58105 107.259 9.77267 107.743 10.1559L114.435 16.2876C114.629 16.5751 114.823 16.3834 114.823 16.096V9.58105H118.993V22.5152C118.993 22.8984 118.799 23.1858 118.314 23.1858H116.084C115.211 23.1858 114.532 22.8984 113.95 22.4194Z" fill="white"/>
<path d="M138.583 23.1857H130.921C125.684 23.1857 122.872 21.4612 122.872 16.2875C122.872 11.6887 125.587 9.67676 131.018 9.67676H139.164V13.2217H131.212C128.691 13.2217 127.915 13.7965 127.915 16.3833C127.915 19.1618 128.594 19.9283 131.212 19.9283H134.219C134.413 19.9283 134.51 19.7366 134.51 19.545V18.2037C134.51 18.0121 134.413 17.8205 134.219 17.8205H131.794V14.9462H138.389C138.777 14.9462 139.068 15.1378 139.068 15.6169V22.5151C139.261 22.8983 138.971 23.1857 138.583 23.1857Z" fill="white"/>
<path d="M142.171 23.1858L147.699 9.58105H152.257C153.517 9.58105 153.905 9.96429 154.293 10.7308L159.53 23.1858H154.196L150.705 14.7547C150.511 14.1799 150.123 14.1799 149.929 14.7547L146.535 23.1858H142.171Z" fill="white"/>
<path d="M173.301 22.4194L166.9 16.4793C166.609 16.1918 166.512 16.2876 166.512 16.6709V23.1858H162.342V9.58105H164.961C165.931 9.58105 166.609 9.77267 167.094 10.1559L173.786 16.2876C173.98 16.5751 174.174 16.3834 174.174 16.096V9.58105H178.344V22.5152C178.344 22.8984 178.15 23.1858 177.665 23.1858H175.434C174.562 23.1858 173.883 22.8984 173.301 22.4194Z" fill="white"/>
<path d="M186.393 23.1858L191.921 9.58105H196.576C197.74 9.58105 198.224 9.96429 198.515 10.7308L203.849 23.1858H198.418L194.927 14.7547C194.733 14.1799 194.345 14.1799 194.151 14.7547L190.757 23.1858H186.393Z" fill="white"/>
<path d="M221.306 9.58105V17.4373C221.306 22.2278 218.202 23.6649 213.45 23.6649C208.698 23.6649 205.595 22.3236 205.595 17.4373V9.58105H210.541V16.6709C210.541 19.4493 211.996 20.12 213.741 20.12C215.584 20.12 217.038 19.4493 217.038 16.6709V9.58105H221.306Z" fill="white"/>
<path d="M224.506 9.58105H239.635V13.2218H234.592V23.1858H229.549V13.2218H224.506V9.58105Z" fill="white"/>
<path d="M259.709 16.2872C259.709 21.365 256.703 23.5686 250.69 23.5686C244.774 23.5686 241.671 21.365 241.671 16.2872C241.671 11.2093 244.774 9.10156 250.69 9.10156C256.606 9.10156 259.709 11.2093 259.709 16.2872ZM246.811 16.2872C246.811 18.9698 247.781 20.1195 250.69 20.1195C253.6 20.1195 254.472 19.0656 254.472 16.2872C254.472 13.7004 253.503 12.6465 250.69 12.6465C247.781 12.6465 246.811 13.6046 246.811 16.2872Z" fill="white"/>
</svg>
