<svg width="24" height="23" viewBox="0 0 24 23" fill="none" xmlns="http://www.w3.org/2000/svg">
<g clip-path="url(#clip0_354:848)">
<path d="M13.7695 4.09404H5.92374C5.77859 4.08162 5.63243 4.09946 5.49455 4.14641C5.35666 4.19336 5.23004 4.26841 5.12272 4.3668C5.0154 4.46518 4.92972 4.58477 4.87111 4.71796C4.81249 4.85115 4.78223 4.99505 4.78223 5.14054C4.78223 5.28603 4.81249 5.42993 4.87111 5.56313C4.92972 5.69632 5.0154 5.8159 5.12272 5.91429C5.23004 6.01268 5.35666 6.08773 5.49455 6.13468C5.63243 6.18163 5.77859 6.19946 5.92374 6.18704H13.7695C13.9147 6.19946 14.0608 6.18163 14.1987 6.13468C14.3366 6.08773 14.4632 6.01268 14.5705 5.91429C14.6779 5.8159 14.7635 5.69632 14.8222 5.56313C14.8808 5.42993 14.911 5.28603 14.911 5.14054C14.911 4.99505 14.8808 4.85115 14.8222 4.71796C14.7635 4.58477 14.6779 4.46518 14.5705 4.3668C14.4632 4.26841 14.3366 4.19336 14.1987 4.14641C14.0608 4.09946 13.9147 4.08162 13.7695 4.09404ZM14.8213 9.06204C14.8213 8.78348 14.7105 8.51632 14.5132 8.31935C14.316 8.12237 14.0485 8.01171 13.7695 8.01171H5.92374C5.77859 7.99929 5.63243 8.01712 5.49455 8.06408C5.35666 8.11103 5.23004 8.18608 5.12272 8.28446C5.0154 8.38285 4.92972 8.50243 4.87111 8.63563C4.81249 8.76882 4.78223 8.91272 4.78223 9.05821C4.78223 9.2037 4.81249 9.3476 4.87111 9.48079C4.92972 9.61399 5.0154 9.73357 5.12272 9.83196C5.23004 9.93034 5.35666 10.0054 5.49455 10.0523C5.63243 10.0993 5.77859 10.1171 5.92374 10.1047H13.7695C13.9073 10.1057 14.0439 10.0795 14.1714 10.0276C14.299 9.97561 14.415 9.89897 14.5128 9.80204C14.6105 9.70512 14.6881 9.58984 14.7411 9.46283C14.794 9.33583 14.8213 9.19962 14.8213 9.06204ZM9.84663 14.03C10.1091 14.0076 10.3535 13.8876 10.5316 13.6938C10.7098 13.5001 10.8086 13.2466 10.8086 12.9835C10.8086 12.7205 10.7098 12.467 10.5316 12.2732C10.3535 12.0795 10.1091 11.9595 9.84663 11.937H5.92374C5.77859 11.9246 5.63243 11.9425 5.49455 11.9894C5.35666 12.0364 5.23004 12.1114 5.12272 12.2098C5.0154 12.3082 4.92972 12.4278 4.87111 12.561C4.81249 12.6942 4.78223 12.8381 4.78223 12.9835C4.78223 13.129 4.81249 13.2729 4.87111 13.4061C4.92972 13.5393 5.0154 13.6589 5.12272 13.7573C5.23004 13.8557 5.35666 13.9307 5.49455 13.9777C5.63243 14.0246 5.77859 14.0425 5.92374 14.03H9.84663Z" fill="#004595"/>
<path d="M17.7463 17.5797L16.6485 18.308V20.907H3.04501V2.093H16.6485V6.22533L18.7443 2.599V1.06567C18.7473 0.926818 18.7226 0.788757 18.6715 0.659589C18.6204 0.53042 18.544 0.412746 18.4467 0.313476C18.3495 0.214207 18.2334 0.135341 18.1052 0.0815097C17.977 0.0276784 17.8393 -3.37627e-05 17.7002 3.08699e-08H1.99328C1.71638 3.08699e-08 1.45082 0.109852 1.25502 0.30539C1.05922 0.500928 0.949219 0.766134 0.949219 1.04267L0.949219 21.9573C0.949219 22.2339 1.05922 22.4991 1.25502 22.6946C1.45082 22.8901 1.71638 23 1.99328 23H17.7002C17.9771 23 18.2427 22.8901 18.4385 22.6946C18.6343 22.4991 18.7443 22.2339 18.7443 21.9573V16.192L18.2453 17.0583C18.1228 17.2693 17.9518 17.448 17.7463 17.5797Z" fill="#004595"/>
<path d="M23.9799 4.84537C23.841 4.46627 23.6265 4.11927 23.3494 3.8254C23.0723 3.53152 22.7383 3.29689 22.3677 3.13571C22.0383 2.89966 21.6643 2.73306 21.2683 2.64607C20.8724 2.55908 20.4628 2.55351 20.0647 2.62971C19.9401 2.66785 19.8354 2.75315 19.7729 2.86737L13.2322 14.1834C13.1932 14.2543 13.1697 14.3327 13.1631 14.4134L12.9251 18.492C12.9214 18.5836 12.9423 18.6744 12.9855 18.7552C13.0288 18.836 13.0929 18.9037 13.1712 18.9514C13.2495 18.9991 13.3392 19.0251 13.4309 19.0265C13.5226 19.028 13.6131 19.0049 13.6928 18.9597L17.1091 16.7057C17.1797 16.6659 17.2381 16.6076 17.2779 16.537L23.8801 5.21337C23.9594 5.10804 23.9951 4.97628 23.9799 4.84537ZM15.0747 17.158C14.8921 17.0086 14.6968 16.8752 14.4912 16.7594C14.2875 16.6401 14.0744 16.5376 13.8541 16.4527L13.9308 15.226C14.3525 15.2961 14.7566 15.4471 15.1207 15.6707C15.4923 15.861 15.8234 16.1213 16.0957 16.4374L15.0747 17.158ZM8.24991 18.86C8.24991 19.067 8.52628 19.1284 8.6875 19.1974C8.84871 19.2664 9.03296 19.1437 9.16346 19.0747C9.93115 18.6914 11.0443 19.1437 11.8964 19.1437C11.9851 19.1259 12.0649 19.078 12.1222 19.0081C12.1795 18.9382 12.2108 18.8507 12.2108 18.7604C12.2108 18.67 12.1795 18.5825 12.1222 18.5126C12.0649 18.4427 11.9851 18.3948 11.8964 18.377C10.9616 18.2662 10.0191 18.2354 9.07902 18.285C9.07108 18.2 9.04206 18.1184 8.99457 18.0474C8.94976 17.9141 8.8605 17.8003 8.74171 17.725C8.62293 17.6496 8.48184 17.6173 8.34203 17.6334C8.32881 17.5954 8.31075 17.5594 8.2883 17.526C8.26299 17.4803 8.22782 17.4408 8.18533 17.4103C8.14285 17.3798 8.09411 17.3591 8.04264 17.3497C8.19074 17.1513 8.29244 16.9223 8.34026 16.6795C8.38809 16.4367 8.38083 16.1863 8.319 15.9467C8.28486 15.8876 8.23556 15.8387 8.17619 15.805C8.11681 15.7714 8.04951 15.7541 7.98122 15.755C7.45151 15.755 7.00625 16.284 6.66847 16.6137C5.83936 17.4564 5.06982 18.3556 4.3654 19.3047C4.05065 19.711 4.73389 20.0714 5.04097 19.7034C5.68109 18.8848 6.36535 18.1017 7.0907 17.3574C6.91413 17.641 6.72989 17.9247 6.53796 18.193C6.25392 18.63 6.92181 18.998 7.21353 18.5917C7.27775 18.4914 7.36449 18.4074 7.46687 18.3464C7.46687 18.3924 7.42848 18.4384 7.40545 18.492L7.35939 18.584C7.18282 19.021 7.84304 19.2204 8.08102 18.883C8.14199 18.7981 8.19591 18.7084 8.24224 18.6147C8.23823 18.6966 8.24079 18.7786 8.24991 18.86Z" fill="#004595"/>
</g>
<defs>
<clipPath id="clip0_354:848">
<rect width="23" height="23" fill="white" transform="translate(0.949219)"/>
</clipPath>
</defs>
</svg>
