<svg width="27" height="25" viewBox="0 0 27 25" fill="none" xmlns="http://www.w3.org/2000/svg">
<path d="M23.0376 15.1214C22.8126 15.3532 22.7075 15.6757 22.7529 15.9952L23.2657 19.6075L19.6604 20.2379C19.3417 20.2936 19.0664 20.4929 18.9147 20.7778L17.1991 24.0001L13.9103 22.3982C13.7649 22.3274 13.6072 22.292 13.4494 22.292C13.2917 22.292 13.134 22.3274 12.9886 22.3982L9.70009 24.0001L7.98448 20.7778C7.83279 20.4929 7.55754 20.2936 7.23877 20.2379L3.63346 19.6075L4.14619 15.9952C4.19153 15.6759 4.08643 15.3533 3.86128 15.1215L1.31641 12.4998L3.86128 9.8784C4.08629 9.64662 4.19153 9.32405 4.14619 9.00469L3.63346 5.39255L7.23863 4.76261C7.55754 4.70697 7.83279 4.50754 7.98462 4.22263L9.70009 1L12.9884 2.60225C13.2792 2.74408 13.6193 2.74408 13.9103 2.60225L17.199 1L18.9146 4.22263C19.0663 4.50754 19.3415 4.70697 19.6604 4.76261L23.2656 5.39255L22.7527 9.00469C22.7074 9.32419 22.8125 9.64662 23.0376 9.87854L25.5825 12.4998L23.0376 15.1214Z" stroke="#004595" stroke-width="2" stroke-linecap="round" stroke-linejoin="round"/>
<path d="M10.8324 11.8779C11.933 11.8779 12.8282 10.9827 12.8282 9.88234C12.8282 8.78158 11.933 7.88611 10.8324 7.88611C9.73178 7.88611 8.83643 8.78158 8.83643 9.88234C8.83643 10.9828 9.73189 11.8779 10.8324 11.8779ZM10.8324 9.20491C11.2058 9.20491 11.5094 9.50879 11.5094 9.88234C11.5094 10.2556 11.2057 10.5591 10.8324 10.5591C10.459 10.5591 10.1552 10.2555 10.1552 9.88234C10.1552 9.50879 10.459 9.20491 10.8324 9.20491Z" fill="#004595" stroke="#004595" stroke-width="0.5"/>
<path d="M17.4303 8.51873C17.1729 8.26123 16.7552 8.26112 16.4979 8.51873L9.46778 15.5487C9.21028 15.8062 9.21028 16.2237 9.46778 16.4812C9.59658 16.61 9.76528 16.6743 9.93409 16.6743C10.1028 16.6743 10.2716 16.6099 10.4004 16.4812L17.4304 9.45123C17.6878 9.19373 17.6878 8.77622 17.4303 8.51873Z" fill="#004595" stroke="#004595" stroke-width="0.5"/>
<path d="M16.0669 13.1222C14.9664 13.1222 14.0713 14.0174 14.0713 15.1178C14.0713 16.2185 14.9665 17.114 16.0669 17.114C17.1676 17.114 18.0631 16.2185 18.0631 15.1178C18.0631 14.0174 17.1676 13.1222 16.0669 13.1222ZM16.0669 15.7953C15.6937 15.7953 15.3901 15.4914 15.3901 15.1179C15.3901 14.7448 15.6937 14.4411 16.0669 14.4411C16.4403 14.4411 16.7443 14.7448 16.7443 15.1179C16.7443 15.4913 16.4404 15.7953 16.0669 15.7953Z" fill="#004595" stroke="#004595" stroke-width="0.5"/>
</svg>
