<svg width="17" height="16" viewBox="0 0 17 16" fill="none" xmlns="http://www.w3.org/2000/svg">
<path d="M15.5303 12.0979C15.5146 12.086 15.4943 12.0714 15.4684 12.0541C15.3529 11.9771 15.1722 11.8773 14.9154 11.7546L14.9015 11.748L14.888 11.7405C14.7505 11.664 14.5506 11.558 14.2858 11.4204C14.0186 11.2816 13.7754 11.1534 13.5567 11.0359M15.5303 12.0979L13.7934 10.5954M15.5303 12.0979C15.5303 12.1013 15.5303 12.1049 15.5303 12.1086V12.1098C15.5303 12.2494 15.5023 12.4618 15.4303 12.7603L15.4302 12.7607C15.3577 13.0625 15.2874 13.2751 15.2234 13.4136L15.2233 13.4135L15.2194 13.4225C15.1829 13.5057 15.0908 13.6338 14.8909 13.8C14.695 13.9628 14.4202 14.142 14.0563 14.3351C13.4038 14.6733 12.7768 14.8333 12.1708 14.8333C11.9873 14.8333 11.8097 14.8218 11.6378 14.7996C11.4713 14.7775 11.2756 14.7373 11.0484 14.6762L15.5303 12.0979ZM13.5567 11.0359L13.7934 10.5954M13.5567 11.0359C13.5569 11.0359 13.557 11.036 13.5571 11.0361L13.7934 10.5954M13.5567 11.0359C13.3364 10.9177 13.1294 10.803 12.9355 10.6918L12.9132 10.679L12.8924 10.6641C12.8721 10.6495 12.7882 10.5932 12.6241 10.4845M13.7934 10.5954C13.5768 10.4793 13.3738 10.3668 13.1842 10.258C13.1539 10.2362 13.059 10.1728 12.8996 10.0673M12.6241 10.4845C12.6242 10.4846 12.6243 10.4847 12.6244 10.4847L12.8996 10.0673M12.6241 10.4845C12.6239 10.4844 12.6238 10.4843 12.6237 10.4843L12.8996 10.0673M12.6241 10.4845C12.4749 10.3862 12.364 10.3233 12.2859 10.2872M12.8996 10.0673C12.7401 9.96211 12.6055 9.88404 12.4953 9.83312M12.4953 9.83312L12.2863 10.2874C12.2862 10.2873 12.286 10.2872 12.2859 10.2872M12.4953 9.83312C12.3852 9.7825 12.277 9.75702 12.1707 9.75702C12.019 9.75702 11.8294 9.86054 11.6017 10.0673M12.4953 9.83312L12.2856 10.2871C12.2857 10.2871 12.2858 10.2871 12.2859 10.2872M12.2859 10.2872C12.2428 10.2674 12.2105 10.26 12.1869 10.2578M11.6017 10.0673L11.9382 10.4372C11.9381 10.4373 11.938 10.4373 11.9379 10.4374M11.6017 10.0673L11.9379 10.4374M11.6017 10.0673L3.6617 6.91382C3.70125 6.97509 3.73113 7.02168 3.75177 7.05427L3.77412 7.08995L3.77481 7.09108L3.78012 7.10024C4.37791 8.13103 5.06665 9.02223 5.84799 9.76991L5.84816 9.77007C6.62962 10.5172 7.56015 11.1747 8.63488 11.7451L8.64342 11.7496L8.64367 11.7498L8.64611 11.7511L8.68405 11.7729C8.71833 11.7927 8.76719 11.8214 8.83141 11.8592C8.96053 11.9357 9.06734 11.996 9.14115 12.0316L9.14113 12.0317L9.14642 12.0342C9.22101 12.0691 9.31608 12.1064 9.42527 12.1452L9.42626 12.1455C9.55347 12.1903 9.69966 12.2282 9.84863 12.2282C10.0399 12.2282 10.2073 12.1575 10.3368 12.0808C10.4698 12.002 10.5982 11.8958 10.7212 11.7761L10.7214 11.7759C10.9504 11.5527 11.1667 11.3108 11.37 11.0501L11.3701 11.05C11.542 10.8293 11.7313 10.6254 11.9379 10.4374M12.1869 10.2578C12.1925 10.2556 12.1952 10.2548 12.1952 10.2548C12.1952 10.2548 12.1867 10.257 12.1707 10.257C12.1756 10.257 12.181 10.2572 12.1869 10.2578ZM12.1869 10.2578C12.1802 10.2604 12.1694 10.2653 12.1541 10.2736C12.1055 10.3001 12.0337 10.3504 11.9379 10.4374M3.75074 5.04751L3.7508 5.04745C3.98421 4.8282 4.23703 4.6216 4.50858 4.42784L4.50873 4.42773C4.7403 4.26263 4.95387 4.08118 5.15025 3.88359C5.24131 3.79187 5.29264 3.72439 5.31873 3.68061C5.32179 3.67549 5.3243 3.67103 5.32634 3.66721C5.3231 3.65266 5.31651 3.63267 5.30328 3.60645L5.30315 3.60619C5.2669 3.53422 5.20231 3.4297 5.0996 3.2874C4.9866 3.13099 4.92709 3.05002 4.91162 3.03023L4.89568 3.00984L4.88193 2.98792C4.76527 2.80188 4.64524 2.60353 4.52162 2.39315L3.75074 5.04751ZM3.75074 5.04751C3.62604 5.16469 3.51398 5.28828 3.43009 5.41779C3.34908 5.54285 3.2686 5.71294 3.2686 5.91285C3.2686 6.0662 3.31103 6.21373 3.35915 6.33818C3.39919 6.44173 3.43937 6.53672 3.479 6.61252M3.75074 5.04751L3.479 6.61252M4.11931 1.69515L4.11927 1.69508C3.97575 1.44226 3.86479 1.25112 3.78497 1.11941L3.77676 1.10587L3.76943 1.09184C3.64155 0.847118 3.53806 0.675836 3.45856 0.566786C3.4375 0.537888 3.42026 0.516347 3.40688 0.500749C3.39665 0.500295 3.38448 0.5 3.37021 0.5C3.21689 0.5 2.98928 0.528035 2.67501 0.597238L2.67481 0.597281C2.3578 0.66695 2.13131 0.735346 1.98172 0.798391L1.97386 0.801705L1.97383 0.801637C1.76264 0.88643 1.43253 1.1941 1.01437 1.91476C0.663263 2.53427 0.5 3.12471 0.5 3.69145C0.5 3.86464 0.511737 4.03144 0.53477 4.19216L4.11931 1.69515ZM4.11931 1.69515C4.26438 1.9506 4.39838 2.18346 4.5216 2.39312L4.11931 1.69515ZM0.661902 4.74822L0.661956 4.74841C0.729509 4.97825 0.78065 5.13727 0.816063 5.23286L0.661902 4.74822ZM0.661902 4.74822C0.598438 4.5326 0.557121 4.3479 0.534781 4.19223L0.661902 4.74822ZM1.0461 5.82848L1.04617 5.82866C1.15547 6.10776 1.22743 6.29426 1.25564 6.37426C1.50977 7.05406 1.80838 7.65408 2.14934 8.17732L2.15061 8.17926C2.72356 9.06754 3.51381 9.99806 4.52943 10.9695C5.5449 11.9408 6.51844 12.6975 7.44952 13.2471L7.45139 13.2482C8.00051 13.5755 8.63087 13.8624 9.34484 14.1068C9.42797 14.1334 9.62207 14.2018 9.91456 14.307M1.0461 5.82848L11.0481 14.6761C10.8076 14.6113 10.6401 14.562 10.5384 14.5274L10.5384 14.5274C10.4253 14.489 10.2183 14.4159 9.91456 14.307M1.0461 5.82848C0.932093 5.5377 0.855912 5.34038 0.816079 5.2329L1.0461 5.82848ZM9.91456 14.307C9.91466 14.3071 9.91477 14.3071 9.91488 14.3071L9.74566 14.7776L9.9144 14.307C9.91445 14.307 9.9145 14.307 9.91456 14.307ZM3.479 6.61252C3.51775 6.6868 3.58288 6.79181 3.66163 6.91371L3.479 6.61252ZM8.63946 11.7474L8.6396 11.7475L8.63946 11.7474ZM15.574 12.1355C15.5739 12.1355 15.5726 12.1343 15.5705 12.1318C15.573 12.1343 15.574 12.1355 15.574 12.1355ZM5.33454 3.64979C5.33455 3.64979 5.33447 3.65006 5.33427 3.65059L5.33454 3.64979ZM3.37827 0.470306C3.37614 0.468661 3.37507 0.467689 3.37507 0.467614C3.37507 0.467539 3.37613 0.468362 3.37827 0.470306Z" fill="white" stroke="white"/>
</svg>
