<svg width="23" height="23" viewBox="0 0 23 23" fill="none" xmlns="http://www.w3.org/2000/svg">
<path fill-rule="evenodd" clip-rule="evenodd" d="M13.8445 2.90133C13.5349 3.18251 13.2153 3.60437 12.9083 4.22036H14.6042L14.6049 4.22036H16.0149L16.0256 4.20897C16.124 4.10553 16.302 3.88398 16.4496 3.61719C16.6042 3.33777 16.6694 3.1097 16.6694 2.96613C16.6694 2.71541 16.6054 2.65203 16.5405 2.60429C16.4108 2.50885 16.0544 2.35596 15.2178 2.35596C14.7263 2.35596 14.2777 2.50793 13.8445 2.90133ZM11.5403 2.57918C11.2508 2.12597 10.9318 1.73952 10.5808 1.42075C9.77283 0.687031 8.84243 0.355957 7.86292 0.355957C6.86085 0.355957 5.99143 0.525099 5.35505 0.993218C4.65383 1.50903 4.4113 2.25074 4.4113 2.96613C4.4113 3.42686 4.54063 3.85955 4.69957 4.22036H1.73389C1.1816 4.22036 0.733887 4.66808 0.733887 5.22036V10.3729C0.733887 10.9252 1.1816 11.3729 1.73389 11.3729H1.95969V21.9661C1.95969 22.5184 2.40741 22.9661 2.95969 22.9661H9.08873H14.6049C15.1571 22.9661 15.6049 22.5184 15.6049 21.9661V11.3729H21.9597C22.512 11.3729 22.9597 10.9252 22.9597 10.3729V5.22036C22.9597 4.66808 22.512 4.22036 21.9597 4.22036H18.3811C18.54 3.85955 18.6694 3.42686 18.6694 2.96613C18.6694 2.25074 18.4268 1.50903 17.7256 0.993218C17.0892 0.525099 16.2198 0.355957 15.2178 0.355957C14.2382 0.355957 13.3078 0.687031 12.4999 1.42075C12.1489 1.73952 11.8298 2.12597 11.5403 2.57918ZM7.06576 4.22036C7.06223 4.21654 7.05867 4.21274 7.05508 4.20897C6.95664 4.10553 6.77868 3.88398 6.63107 3.61719C6.47648 3.33777 6.4113 3.1097 6.4113 2.96613C6.4113 2.71541 6.47524 2.65203 6.54014 2.60429C6.66989 2.50885 7.02627 2.35596 7.86292 2.35596C8.35437 2.35596 8.803 2.50793 9.23619 2.90133C9.54582 3.18251 9.86541 3.60437 10.1724 4.22036H9.08971L9.08873 4.22036H7.06576ZM8.08873 6.22036H2.73389V9.37291L2.95969 9.37291L8.08873 9.37291V6.22036ZM8.08873 11.3729H3.95969V20.9661H8.08873V11.3729ZM10.0887 6.22036L10.0887 10.3729V10.3743V20.9661H13.6049V10.3743L13.6049 10.3729L13.6049 6.22036H10.0887ZM15.6049 6.22036V9.37291H20.9597V6.22036H15.6049Z" fill="#004595"/>
<rect x="14.6047" y="10.3729" width="6.12903" height="11.5932" stroke="#004595" stroke-width="2" stroke-linecap="round" stroke-linejoin="round"/>
</svg>
