<svg width="32" height="15" viewBox="0 0 32 15" fill="none" xmlns="http://www.w3.org/2000/svg">
<path d="M30.5212 8.15072L24.992 13.092H18.4454V11.4801H24.8136C25.0118 11.4801 25.1967 11.4075 25.3421 11.2753L31.5781 5.65366C31.9018 5.363 31.9282 4.86094 31.6376 4.53725C31.3469 4.21356 30.8448 4.18714 30.5212 4.4778L24.5097 9.9013H18.4454V8.28944H24.0539C24.2521 8.28944 24.4437 8.21678 24.589 8.08466L31.5913 1.69669C31.8357 1.47869 31.915 1.12857 31.7961 0.8247C31.6772 0.520826 31.3865 0.31604 31.0562 0.31604H7.79002C7.59184 0.31604 7.40027 0.388706 7.25494 0.520825L0.25922 6.90879C0.0147996 7.12679 -0.064472 7.47691 0.0544354 7.78078C0.173343 8.08466 0.464005 8.28944 0.794304 8.28944H7.42009V9.9013H0.794304C0.35831 9.9013 0.00158762 10.258 0.00158762 10.694C0.00158762 11.13 0.35831 11.4867 0.794304 11.4867H7.42009V13.0986H0.794304C0.35831 13.0986 0.00158762 13.4553 0.00158762 13.8913C0.00158762 14.3273 0.35831 14.684 0.794304 14.684H8.2128H17.6593H25.3024C25.5006 14.684 25.6856 14.6114 25.8309 14.4792L31.5847 9.33318C31.9084 9.04252 31.9414 8.54047 31.6442 8.21678C31.3469 7.88648 30.8448 7.86005 30.5212 8.15072ZM21.8673 1.89487L16.6024 6.6974H10.0823L15.3472 1.89487H21.8673ZM23.7434 6.70401H18.9541L24.2191 1.90147H29.0084L23.7434 6.70401ZM8.1005 1.89487H12.9889L7.72396 6.6974H2.83555L8.1005 1.89487ZM8.99891 13.092V8.28944H16.86V13.092H8.99891Z" fill="#004595"/>
</svg>
